<?xml version="1.0" encoding="UTF-8" standalone="no"?>
<!DOCTYPE svg PUBLIC "-//W3C//DTD SVG 1.1//EN" "http://www.w3.org/Graphics/SVG/1.1/DTD/svg11.dtd">
<svg width="100%" height="100%" viewBox="0 0 83 80" version="1.1" xmlns="http://www.w3.org/2000/svg" xmlns:xlink="http://www.w3.org/1999/xlink" xml:space="preserve" style="fill-rule:evenodd;clip-rule:evenodd;stroke-linejoin:round;stroke-miterlimit:2;">
    <path d="M59.6,20.07L59.6,10.92L48.7,0L10.93,0L0,10.92L0,48.62L10.93,59.53L22.93,59.53L22.93,68.71L33.95,79.64L65.82,79.64L76.86,68.72L76.86,39.51L82.49,39.51L82.49,20.07L59.6,20.07Z" style="fill:rgb(207,184,124);fill-rule:nonzero;"/>
    <path d="M48.23,1.13L58.46,11.39L58.46,21.2L81.36,21.2L81.36,38.39L75.73,38.39L75.73,68.24L65.35,78.5L34.41,78.5L24.06,68.24L24.06,58.4L11.4,58.4L1.13,48.15L1.13,11.39L11.4,1.13L48.23,1.13Z" style="fill:rgb(35,31,32);fill-rule:nonzero;"/>
    <path d="M12.57,55.57L26.89,55.57L26.89,67.06L35.58,75.67L64.19,75.67L72.9,67.06L72.9,35.55L78.53,35.55L78.53,24.04L61.26,24.04L61.26,64.17L38.4,64.17L38.4,55.57L47.05,55.57L55.63,46.97L55.63,35.55L44.12,35.55L44.12,44.08L38.4,44.08L38.4,24.04L21.18,24.04L21.18,35.55L26.89,35.55L26.89,44.08L15.45,44.08L15.45,15.37L44.12,15.37L44.12,24.04L55.63,24.04L55.63,12.57L47.05,3.96L12.57,3.96L3.96,12.56L3.96,46.97L12.57,55.57" style="fill:white;fill-rule:nonzero;"/>
    <path d="M36.98,54.15L46.47,54.15L54.22,46.39L54.22,36.97L45.54,36.97L45.54,45.5L36.98,45.5L36.98,25.46L22.6,25.46L22.6,34.14L28.31,34.14L28.31,45.5L14.04,45.5L14.04,13.95L45.54,13.95L45.54,22.62L54.22,22.62L54.22,13.15L46.47,5.38L13.16,5.38L5.38,13.15L5.38,46.39L13.16,54.15L28.31,54.15L28.31,66.47L36.16,74.26L63.6,74.26L71.48,66.46L71.48,34.14L77.11,34.14L77.11,25.46L62.67,25.46L62.67,65.58L36.98,65.58L36.98,54.15Z" style="fill:rgb(207,184,124);fill-rule:nonzero;"/>
</svg>
