<?xml version="1.0" encoding="UTF-8" standalone="no"?>
<!DOCTYPE svg PUBLIC "-//W3C//DTD SVG 1.1//EN" "http://www.w3.org/Graphics/SVG/1.1/DTD/svg11.dtd">
<svg width="100%" height="100%" viewBox="0 0 118 78" version="1.1" xmlns="http://www.w3.org/2000/svg" xmlns:xlink="http://www.w3.org/1999/xlink" xml:space="preserve" style="fill-rule:evenodd;clip-rule:evenodd;stroke-linejoin:round;stroke-miterlimit:2;">
    <g transform="matrix(1,0,0,1,-6.8,-7.1)">
        <g>
            <path d="M66.3,54.3L39,7.1L6.8,7.1L51.4,84.3L67.5,56.4L68.7,54.3L66.3,54.3ZM107,54.3L79.8,7.1L47.6,7.1L92.2,84.3L108.3,56.4L109.5,54.3L107,54.3Z" style="fill:rgb(33,21,81);fill-rule:nonzero;"/>
        </g>
        <g>
            <path d="M124.8,7.1L123.3,9.7L123.3,24.8C123.3,26 122.7,27.1 121.6,27.7L112.6,32.8L103.6,27.7C102.6,27.1 101.9,26 101.9,24.8L101.9,9.8L100.4,7.2L124.8,7.2L124.8,7.1Z" style="fill:rgb(33,21,81);fill-rule:nonzero;"/>
        </g>
    </g>
</svg>
